REM GENRE "Gothic Industrial Metal"
REM DATE 2003
REM DISCID BE12300E
REM COMMENT "ExactAudioCopy v1.0b3"
PERFORMER "The Kovenant"
TITLE "SETI [Reissue 2009]"
FILE "01-The Kovenant-Cybertrash.wav" WAVE
  TRACK 01 AUDIO
    TITLE "Cybertrash"
    PERFORMER "The Kovenant"
    ISRC PLA640906591
    FLAGS DCP
    INDEX 01 00:00:00
FILE "02-The Kovenant-Planet Of The Apes.wav" WAVE
  TRACK 02 AUDIO
    TITLE "Planet Of The Apes"
    PERFORMER "The Kovenant"
    ISRC PLA640906592
    FLAGS DCP
    INDEX 01 00:00:00
FILE "03-The Kovenant-Star By Star.wav" WAVE
  TRACK 03 AUDIO
    TITLE "Star By Star"
    PERFORMER "The Kovenant"
    ISRC PLA640906593
    FLAGS DCP
    INDEX 01 00:00:00
FILE "04-The Kovenant-Via Negativa.wav" WAVE
  TRACK 04 AUDIO
    TITLE "Via Negativa"
    PERFORMER "The Kovenant"
    ISRC PLA640906594
    FLAGS DCP
    INDEX 01 00:00:00
FILE "05-The Kovenant-Stillborn Universe.wav" WAVE
  TRACK 05 AUDIO
    TITLE "Stillborn Universe"
    PERFORMER "The Kovenant"
    ISRC PLA640906595
    FLAGS DCP
    INDEX 01 00:00:00
FILE "06-The Kovenant-Acid Theater.wav" WAVE
  TRACK 06 AUDIO
    TITLE "Acid Theater"
    PERFORMER "The Kovenant"
    ISRC PLA640906596
    FLAGS DCP
    INDEX 01 00:00:00
FILE "07-The Kovenant-The Perfect End.wav" WAVE
  TRACK 07 AUDIO
    TITLE "The Perfect End"
    PERFORMER "The Kovenant"
    ISRC PLA640906597
    FLAGS DCP
    INDEX 01 00:00:00
FILE "08-The Kovenant-Neon.wav" WAVE
  TRACK 08 AUDIO
    TITLE "Neon"
    PERFORMER "The Kovenant"
    ISRC PLA640906598
    FLAGS DCP
    INDEX 01 00:00:00
FILE "09-The Kovenant-Keepers Of The Garden.wav" WAVE
  TRACK 09 AUDIO
    TITLE "Keepers Of The Garden"
    PERFORMER "The Kovenant"
    ISRC PLA640906599
    FLAGS DCP
    INDEX 01 00:00:00
FILE "10-The Kovenant-Pantomime.wav" WAVE
  TRACK 10 AUDIO
    TITLE "Pantomime"
    PERFORMER "The Kovenant"
    ISRC PLA640906600
    FLAGS DCP
    INDEX 01 00:00:00
FILE "11-The Kovenant-Hollow Earth.wav" WAVE
  TRACK 11 AUDIO
    TITLE "Hollow Earth"
    PERFORMER "The Kovenant"
    ISRC PLA640906601
    FLAGS DCP
    INDEX 01 00:00:00
FILE "12-The Kovenant-Industrial Twilight.wav" WAVE
  TRACK 12 AUDIO
    TITLE "Industrial Twilight"
    PERFORMER "The Kovenant"
    ISRC PLA640906602
    FLAGS DCP
    INDEX 01 00:00:00
FILE "13-The Kovenant-Subtopia [Bonus Track].wav" WAVE
  TRACK 13 AUDIO
    TITLE "Subtopia [Bonus Track]"
    PERFORMER "The Kovenant"
    ISRC PLA640906603
    FLAGS DCP
    INDEX 01 00:00:00
FILE "14-The Kovenant-The Memory Remains [Metallica Cover - Bonus Track].wav" WAVE
  TRACK 14 AUDIO
    TITLE "The Memory Remains [Metallica Cover - Bonus Track]"
    PERFORMER "The Kovenant"
    ISRC PLA640906604
    FLAGS DCP
    INDEX 01 00:00:00
